<mxfile host="Electron" modified="2024-07-18T10:51:24.600Z" agent="Mozilla/5.0 (X11; Linux x86_64) AppleWebKit/537.36 (KHTML, like Gecko) draw.io/24.6.4 Chrome/124.0.6367.207 Electron/30.0.6 Safari/537.36" etag="eLZY2Oj8I8lxtbU6kggk" version="24.6.4" type="device">
  <diagram id="R2lEEEUBdFMjLlhIrx00" name="Page-1">
    <mxGraphModel dx="2261" dy="845" grid="1" gridSize="10" guides="1" tooltips="1" connect="1" arrows="1" fold="1" page="1" pageScale="1" pageWidth="827" pageHeight="1169" math="0" shadow="0" extFonts="Permanent Marker^https://fonts.googleapis.com/css?family=Permanent+Marker">
      <root>
        <mxCell id="0" />
        <mxCell id="1" parent="0" />
        <mxCell id="dh3amedZ29eyjXVZCjvd-49" style="edgeStyle=none;shape=connector;rounded=0;orthogonalLoop=1;jettySize=auto;html=1;exitX=1;exitY=1;exitDx=0;exitDy=0;entryX=0.5;entryY=0;entryDx=0;entryDy=0;strokeColor=default;align=center;verticalAlign=middle;fontFamily=Helvetica;fontSize=11;fontColor=default;labelBackgroundColor=default;endArrow=none;" parent="1" source="SV3E9Kw29htiZ1d8ENj7-2" target="BA5U3kSRvV7oJEMfb4nu-9" edge="1">
          <mxGeometry relative="1" as="geometry" />
        </mxCell>
        <mxCell id="u3yfw166LWKgYhDKPG6Q-4" style="edgeStyle=none;shape=connector;rounded=0;orthogonalLoop=1;jettySize=auto;html=1;exitX=0;exitY=0.25;exitDx=0;exitDy=0;strokeColor=default;align=center;verticalAlign=middle;fontFamily=Helvetica;fontSize=11;fontColor=default;labelBackgroundColor=default;endArrow=none;" parent="1" edge="1">
          <mxGeometry relative="1" as="geometry">
            <mxPoint x="-90" y="190" as="targetPoint" />
            <mxPoint x="145" y="180" as="sourcePoint" />
          </mxGeometry>
        </mxCell>
        <mxCell id="SV3E9Kw29htiZ1d8ENj7-2" value="Admin" style="rounded=1;arcSize=10;whiteSpace=wrap;html=1;align=center;fontSize=18;fillColor=#fff2cc;strokeColor=#d6b656;" parent="1" vertex="1">
          <mxGeometry x="135" y="160" width="120" height="60" as="geometry" />
        </mxCell>
        <mxCell id="KLRx96uMBCcEcgTpdciU-135" style="edgeStyle=none;shape=connector;rounded=0;orthogonalLoop=1;jettySize=auto;html=1;exitX=0;exitY=0.25;exitDx=0;exitDy=0;entryX=1;entryY=0.5;entryDx=0;entryDy=0;strokeColor=default;align=center;verticalAlign=middle;fontFamily=Helvetica;fontSize=11;fontColor=default;labelBackgroundColor=default;endArrow=none;" parent="1" source="SV3E9Kw29htiZ1d8ENj7-3" target="KLRx96uMBCcEcgTpdciU-78" edge="1">
          <mxGeometry relative="1" as="geometry" />
        </mxCell>
        <mxCell id="KLRx96uMBCcEcgTpdciU-136" style="edgeStyle=none;shape=connector;rounded=0;orthogonalLoop=1;jettySize=auto;html=1;exitX=0;exitY=0.5;exitDx=0;exitDy=0;entryX=1;entryY=0.5;entryDx=0;entryDy=0;strokeColor=default;align=center;verticalAlign=middle;fontFamily=Helvetica;fontSize=11;fontColor=default;labelBackgroundColor=default;endArrow=none;" parent="1" source="SV3E9Kw29htiZ1d8ENj7-3" target="KLRx96uMBCcEcgTpdciU-79" edge="1">
          <mxGeometry relative="1" as="geometry" />
        </mxCell>
        <mxCell id="KLRx96uMBCcEcgTpdciU-137" style="edgeStyle=none;shape=connector;rounded=0;orthogonalLoop=1;jettySize=auto;html=1;exitX=0.25;exitY=1;exitDx=0;exitDy=0;entryX=1;entryY=0;entryDx=0;entryDy=0;strokeColor=default;align=center;verticalAlign=middle;fontFamily=Helvetica;fontSize=11;fontColor=default;labelBackgroundColor=default;endArrow=none;" parent="1" source="SV3E9Kw29htiZ1d8ENj7-3" target="KLRx96uMBCcEcgTpdciU-83" edge="1">
          <mxGeometry relative="1" as="geometry" />
        </mxCell>
        <mxCell id="KLRx96uMBCcEcgTpdciU-138" style="edgeStyle=none;shape=connector;rounded=0;orthogonalLoop=1;jettySize=auto;html=1;exitX=0.5;exitY=1;exitDx=0;exitDy=0;strokeColor=default;align=center;verticalAlign=middle;fontFamily=Helvetica;fontSize=11;fontColor=default;labelBackgroundColor=default;endArrow=none;" parent="1" source="SV3E9Kw29htiZ1d8ENj7-3" target="KLRx96uMBCcEcgTpdciU-81" edge="1">
          <mxGeometry relative="1" as="geometry" />
        </mxCell>
        <mxCell id="dh3amedZ29eyjXVZCjvd-26" style="edgeStyle=none;shape=link;rounded=0;orthogonalLoop=1;jettySize=auto;html=1;exitX=0.5;exitY=0;exitDx=0;exitDy=0;strokeColor=default;align=center;verticalAlign=middle;fontFamily=Helvetica;fontSize=11;fontColor=default;labelBackgroundColor=default;endArrow=none;" parent="1" source="SV3E9Kw29htiZ1d8ENj7-3" edge="1">
          <mxGeometry relative="1" as="geometry">
            <mxPoint x="-50" y="580" as="targetPoint" />
          </mxGeometry>
        </mxCell>
        <mxCell id="dh3amedZ29eyjXVZCjvd-50" style="edgeStyle=none;shape=connector;rounded=0;orthogonalLoop=1;jettySize=auto;html=1;exitX=0.5;exitY=0;exitDx=0;exitDy=0;entryX=0.5;entryY=1;entryDx=0;entryDy=0;strokeColor=default;align=center;verticalAlign=middle;fontFamily=Helvetica;fontSize=11;fontColor=default;labelBackgroundColor=default;endArrow=none;" parent="1" source="SV3E9Kw29htiZ1d8ENj7-3" target="BA5U3kSRvV7oJEMfb4nu-11" edge="1">
          <mxGeometry relative="1" as="geometry">
            <Array as="points">
              <mxPoint x="100" y="550" />
            </Array>
          </mxGeometry>
        </mxCell>
        <mxCell id="SV3E9Kw29htiZ1d8ENj7-3" value="Staff" style="rounded=1;arcSize=10;whiteSpace=wrap;html=1;align=center;fontSize=18;fillColor=#fff2cc;strokeColor=#d6b656;" parent="1" vertex="1">
          <mxGeometry x="220" y="665" width="140" height="60" as="geometry" />
        </mxCell>
        <mxCell id="KLRx96uMBCcEcgTpdciU-99" style="edgeStyle=none;shape=connector;rounded=0;orthogonalLoop=1;jettySize=auto;html=1;exitX=1;exitY=0;exitDx=0;exitDy=0;entryX=0;entryY=0.5;entryDx=0;entryDy=0;strokeColor=default;align=center;verticalAlign=middle;fontFamily=Helvetica;fontSize=11;fontColor=default;labelBackgroundColor=default;endArrow=none;" parent="1" source="SV3E9Kw29htiZ1d8ENj7-4" target="KLRx96uMBCcEcgTpdciU-37" edge="1">
          <mxGeometry relative="1" as="geometry" />
        </mxCell>
        <mxCell id="KLRx96uMBCcEcgTpdciU-100" style="edgeStyle=none;shape=connector;rounded=0;orthogonalLoop=1;jettySize=auto;html=1;exitX=1;exitY=0.5;exitDx=0;exitDy=0;entryX=0;entryY=0.5;entryDx=0;entryDy=0;strokeColor=default;align=center;verticalAlign=middle;fontFamily=Helvetica;fontSize=11;fontColor=default;labelBackgroundColor=default;endArrow=none;" parent="1" source="SV3E9Kw29htiZ1d8ENj7-4" target="KLRx96uMBCcEcgTpdciU-38" edge="1">
          <mxGeometry relative="1" as="geometry" />
        </mxCell>
        <mxCell id="KLRx96uMBCcEcgTpdciU-102" style="edgeStyle=none;shape=connector;rounded=0;orthogonalLoop=1;jettySize=auto;html=1;exitX=0;exitY=0;exitDx=0;exitDy=0;entryX=1;entryY=1;entryDx=0;entryDy=0;strokeColor=default;align=center;verticalAlign=middle;fontFamily=Helvetica;fontSize=11;fontColor=default;labelBackgroundColor=default;endArrow=none;" parent="1" source="SV3E9Kw29htiZ1d8ENj7-4" target="KLRx96uMBCcEcgTpdciU-39" edge="1">
          <mxGeometry relative="1" as="geometry" />
        </mxCell>
        <mxCell id="KLRx96uMBCcEcgTpdciU-106" style="edgeStyle=none;shape=connector;rounded=0;orthogonalLoop=1;jettySize=auto;html=1;exitX=0;exitY=0.25;exitDx=0;exitDy=0;strokeColor=default;align=center;verticalAlign=middle;fontFamily=Helvetica;fontSize=11;fontColor=default;labelBackgroundColor=default;endArrow=none;" parent="1" source="SV3E9Kw29htiZ1d8ENj7-4" target="KLRx96uMBCcEcgTpdciU-48" edge="1">
          <mxGeometry relative="1" as="geometry" />
        </mxCell>
        <mxCell id="KLRx96uMBCcEcgTpdciU-108" style="edgeStyle=none;shape=connector;rounded=0;orthogonalLoop=1;jettySize=auto;html=1;exitX=1;exitY=0;exitDx=0;exitDy=0;entryX=0;entryY=1;entryDx=0;entryDy=0;strokeColor=default;align=center;verticalAlign=middle;fontFamily=Helvetica;fontSize=11;fontColor=default;labelBackgroundColor=default;endArrow=none;" parent="1" source="SV3E9Kw29htiZ1d8ENj7-4" target="KLRx96uMBCcEcgTpdciU-45" edge="1">
          <mxGeometry relative="1" as="geometry" />
        </mxCell>
        <mxCell id="dh3amedZ29eyjXVZCjvd-18" style="edgeStyle=none;shape=link;rounded=0;orthogonalLoop=1;jettySize=auto;html=1;exitX=0;exitY=1;exitDx=0;exitDy=0;strokeColor=default;align=center;verticalAlign=middle;fontFamily=Helvetica;fontSize=11;fontColor=default;labelBackgroundColor=default;endArrow=none;" parent="1" source="SV3E9Kw29htiZ1d8ENj7-4" edge="1">
          <mxGeometry relative="1" as="geometry">
            <mxPoint x="850" y="220" as="targetPoint" />
          </mxGeometry>
        </mxCell>
        <mxCell id="dh3amedZ29eyjXVZCjvd-19" style="edgeStyle=none;shape=link;rounded=0;orthogonalLoop=1;jettySize=auto;html=1;exitX=0.5;exitY=1;exitDx=0;exitDy=0;entryX=0.5;entryY=0;entryDx=0;entryDy=0;strokeColor=default;align=center;verticalAlign=middle;fontFamily=Helvetica;fontSize=11;fontColor=default;labelBackgroundColor=default;endArrow=none;" parent="1" source="SV3E9Kw29htiZ1d8ENj7-4" target="BA5U3kSRvV7oJEMfb4nu-13" edge="1">
          <mxGeometry relative="1" as="geometry" />
        </mxCell>
        <mxCell id="dh3amedZ29eyjXVZCjvd-45" style="edgeStyle=none;shape=connector;rounded=0;orthogonalLoop=1;jettySize=auto;html=1;exitX=0.25;exitY=1;exitDx=0;exitDy=0;entryX=0.5;entryY=0;entryDx=0;entryDy=0;strokeColor=default;align=center;verticalAlign=middle;fontFamily=Helvetica;fontSize=11;fontColor=default;labelBackgroundColor=default;endArrow=none;" parent="1" source="SV3E9Kw29htiZ1d8ENj7-4" target="BA5U3kSRvV7oJEMfb4nu-14" edge="1">
          <mxGeometry relative="1" as="geometry" />
        </mxCell>
        <mxCell id="SV3E9Kw29htiZ1d8ENj7-4" value="Doctor" style="rounded=1;arcSize=10;whiteSpace=wrap;html=1;align=center;fontSize=18;fillColor=#d5e8d4;strokeColor=#82b366;" parent="1" vertex="1">
          <mxGeometry x="880" y="150" width="100" height="45" as="geometry" />
        </mxCell>
        <mxCell id="KLRx96uMBCcEcgTpdciU-111" style="edgeStyle=none;shape=connector;rounded=0;orthogonalLoop=1;jettySize=auto;html=1;exitX=1;exitY=0;exitDx=0;exitDy=0;strokeColor=default;align=center;verticalAlign=middle;fontFamily=Helvetica;fontSize=11;fontColor=default;labelBackgroundColor=default;endArrow=none;" parent="1" source="SV3E9Kw29htiZ1d8ENj7-5" target="KLRx96uMBCcEcgTpdciU-52" edge="1">
          <mxGeometry relative="1" as="geometry" />
        </mxCell>
        <mxCell id="KLRx96uMBCcEcgTpdciU-112" style="edgeStyle=none;shape=connector;rounded=0;orthogonalLoop=1;jettySize=auto;html=1;exitX=0.75;exitY=0;exitDx=0;exitDy=0;entryX=0.5;entryY=1;entryDx=0;entryDy=0;strokeColor=default;align=center;verticalAlign=middle;fontFamily=Helvetica;fontSize=11;fontColor=default;labelBackgroundColor=default;endArrow=none;" parent="1" source="SV3E9Kw29htiZ1d8ENj7-5" target="KLRx96uMBCcEcgTpdciU-55" edge="1">
          <mxGeometry relative="1" as="geometry" />
        </mxCell>
        <mxCell id="KLRx96uMBCcEcgTpdciU-115" style="edgeStyle=none;shape=connector;rounded=0;orthogonalLoop=1;jettySize=auto;html=1;exitX=0;exitY=0.5;exitDx=0;exitDy=0;entryX=1;entryY=0.5;entryDx=0;entryDy=0;strokeColor=default;align=center;verticalAlign=middle;fontFamily=Helvetica;fontSize=11;fontColor=default;labelBackgroundColor=default;endArrow=none;" parent="1" source="SV3E9Kw29htiZ1d8ENj7-5" target="KLRx96uMBCcEcgTpdciU-53" edge="1">
          <mxGeometry relative="1" as="geometry" />
        </mxCell>
        <mxCell id="KLRx96uMBCcEcgTpdciU-116" style="edgeStyle=none;shape=connector;rounded=0;orthogonalLoop=1;jettySize=auto;html=1;exitX=0;exitY=0;exitDx=0;exitDy=0;entryX=1;entryY=0.5;entryDx=0;entryDy=0;strokeColor=default;align=center;verticalAlign=middle;fontFamily=Helvetica;fontSize=11;fontColor=default;labelBackgroundColor=default;endArrow=none;" parent="1" source="SV3E9Kw29htiZ1d8ENj7-5" target="KLRx96uMBCcEcgTpdciU-49" edge="1">
          <mxGeometry relative="1" as="geometry" />
        </mxCell>
        <mxCell id="dh3amedZ29eyjXVZCjvd-21" style="edgeStyle=none;shape=link;rounded=0;orthogonalLoop=1;jettySize=auto;html=1;exitX=0.5;exitY=1;exitDx=0;exitDy=0;entryX=0.5;entryY=0;entryDx=0;entryDy=0;strokeColor=default;align=center;verticalAlign=middle;fontFamily=Helvetica;fontSize=11;fontColor=default;labelBackgroundColor=default;endArrow=none;" parent="1" source="SV3E9Kw29htiZ1d8ENj7-5" target="BA5U3kSRvV7oJEMfb4nu-12" edge="1">
          <mxGeometry relative="1" as="geometry" />
        </mxCell>
        <mxCell id="SV3E9Kw29htiZ1d8ENj7-5" value="Appointment" style="rounded=1;arcSize=10;whiteSpace=wrap;html=1;align=center;fontSize=17;fillColor=#f8cecc;strokeColor=#b85450;" parent="1" vertex="1">
          <mxGeometry x="540" y="310" width="115" height="60" as="geometry" />
        </mxCell>
        <mxCell id="KLRx96uMBCcEcgTpdciU-139" style="edgeStyle=none;shape=connector;rounded=0;orthogonalLoop=1;jettySize=auto;html=1;exitX=0;exitY=0.5;exitDx=0;exitDy=0;strokeColor=default;align=center;verticalAlign=middle;fontFamily=Helvetica;fontSize=11;fontColor=default;labelBackgroundColor=default;endArrow=none;" parent="1" source="SV3E9Kw29htiZ1d8ENj7-6" target="KLRx96uMBCcEcgTpdciU-88" edge="1">
          <mxGeometry relative="1" as="geometry" />
        </mxCell>
        <mxCell id="KLRx96uMBCcEcgTpdciU-141" style="edgeStyle=none;shape=connector;rounded=0;orthogonalLoop=1;jettySize=auto;html=1;exitX=0.25;exitY=1;exitDx=0;exitDy=0;entryX=0.5;entryY=0;entryDx=0;entryDy=0;strokeColor=default;align=center;verticalAlign=middle;fontFamily=Helvetica;fontSize=11;fontColor=default;labelBackgroundColor=default;endArrow=none;" parent="1" source="SV3E9Kw29htiZ1d8ENj7-6" target="KLRx96uMBCcEcgTpdciU-84" edge="1">
          <mxGeometry relative="1" as="geometry" />
        </mxCell>
        <mxCell id="KLRx96uMBCcEcgTpdciU-144" style="edgeStyle=none;shape=connector;rounded=0;orthogonalLoop=1;jettySize=auto;html=1;exitX=1;exitY=0.25;exitDx=0;exitDy=0;entryX=0;entryY=0;entryDx=0;entryDy=0;strokeColor=default;align=center;verticalAlign=middle;fontFamily=Helvetica;fontSize=11;fontColor=default;labelBackgroundColor=default;endArrow=none;" parent="1" source="SV3E9Kw29htiZ1d8ENj7-6" target="KLRx96uMBCcEcgTpdciU-91" edge="1">
          <mxGeometry relative="1" as="geometry" />
        </mxCell>
        <mxCell id="KLRx96uMBCcEcgTpdciU-145" style="edgeStyle=none;shape=connector;rounded=0;orthogonalLoop=1;jettySize=auto;html=1;exitX=0.75;exitY=0;exitDx=0;exitDy=0;strokeColor=default;align=center;verticalAlign=middle;fontFamily=Helvetica;fontSize=11;fontColor=default;labelBackgroundColor=default;endArrow=none;" parent="1" source="SV3E9Kw29htiZ1d8ENj7-6" target="KLRx96uMBCcEcgTpdciU-86" edge="1">
          <mxGeometry relative="1" as="geometry" />
        </mxCell>
        <mxCell id="SV3E9Kw29htiZ1d8ENj7-6" value="Billing" style="rounded=1;arcSize=10;whiteSpace=wrap;html=1;align=center;fillColor=#dae8fc;strokeColor=#6c8ebf;fontSize=18;" parent="1" vertex="1">
          <mxGeometry x="707" y="690" width="100" height="50" as="geometry" />
        </mxCell>
        <mxCell id="KLRx96uMBCcEcgTpdciU-117" style="edgeStyle=none;shape=connector;rounded=0;orthogonalLoop=1;jettySize=auto;html=1;exitX=0.5;exitY=0;exitDx=0;exitDy=0;strokeColor=default;align=center;verticalAlign=middle;fontFamily=Helvetica;fontSize=11;fontColor=default;labelBackgroundColor=default;endArrow=none;" parent="1" source="SV3E9Kw29htiZ1d8ENj7-8" target="KLRx96uMBCcEcgTpdciU-62" edge="1">
          <mxGeometry relative="1" as="geometry" />
        </mxCell>
        <mxCell id="KLRx96uMBCcEcgTpdciU-121" style="edgeStyle=none;shape=connector;rounded=0;orthogonalLoop=1;jettySize=auto;html=1;exitX=0;exitY=0.5;exitDx=0;exitDy=0;entryX=1;entryY=0.5;entryDx=0;entryDy=0;strokeColor=default;align=center;verticalAlign=middle;fontFamily=Helvetica;fontSize=11;fontColor=default;labelBackgroundColor=default;endArrow=none;" parent="1" source="SV3E9Kw29htiZ1d8ENj7-8" target="KLRx96uMBCcEcgTpdciU-68" edge="1">
          <mxGeometry relative="1" as="geometry" />
        </mxCell>
        <mxCell id="KLRx96uMBCcEcgTpdciU-124" value="" style="edgeStyle=none;shape=connector;rounded=0;orthogonalLoop=1;jettySize=auto;html=1;strokeColor=default;align=center;verticalAlign=middle;fontFamily=Helvetica;fontSize=11;fontColor=default;labelBackgroundColor=default;endArrow=none;" parent="1" source="SV3E9Kw29htiZ1d8ENj7-8" target="KLRx96uMBCcEcgTpdciU-59" edge="1">
          <mxGeometry relative="1" as="geometry" />
        </mxCell>
        <mxCell id="KLRx96uMBCcEcgTpdciU-125" style="edgeStyle=none;shape=connector;rounded=0;orthogonalLoop=1;jettySize=auto;html=1;exitX=0.25;exitY=1;exitDx=0;exitDy=0;strokeColor=default;align=center;verticalAlign=middle;fontFamily=Helvetica;fontSize=11;fontColor=default;labelBackgroundColor=default;endArrow=none;" parent="1" source="SV3E9Kw29htiZ1d8ENj7-8" target="KLRx96uMBCcEcgTpdciU-61" edge="1">
          <mxGeometry relative="1" as="geometry" />
        </mxCell>
        <mxCell id="KLRx96uMBCcEcgTpdciU-126" style="edgeStyle=none;shape=connector;rounded=0;orthogonalLoop=1;jettySize=auto;html=1;exitX=1;exitY=0.25;exitDx=0;exitDy=0;entryX=0;entryY=0.5;entryDx=0;entryDy=0;strokeColor=default;align=center;verticalAlign=middle;fontFamily=Helvetica;fontSize=11;fontColor=default;labelBackgroundColor=default;endArrow=none;" parent="1" source="SV3E9Kw29htiZ1d8ENj7-8" target="KLRx96uMBCcEcgTpdciU-67" edge="1">
          <mxGeometry relative="1" as="geometry" />
        </mxCell>
        <mxCell id="KLRx96uMBCcEcgTpdciU-130" style="edgeStyle=none;shape=connector;rounded=0;orthogonalLoop=1;jettySize=auto;html=1;exitX=1;exitY=1;exitDx=0;exitDy=0;entryX=0;entryY=0;entryDx=0;entryDy=0;strokeColor=default;align=center;verticalAlign=middle;fontFamily=Helvetica;fontSize=11;fontColor=default;labelBackgroundColor=default;endArrow=none;" parent="1" source="SV3E9Kw29htiZ1d8ENj7-8" target="KLRx96uMBCcEcgTpdciU-57" edge="1">
          <mxGeometry relative="1" as="geometry" />
        </mxCell>
        <mxCell id="dh3amedZ29eyjXVZCjvd-30" style="edgeStyle=none;shape=link;rounded=0;orthogonalLoop=1;jettySize=auto;html=1;exitX=1;exitY=0;exitDx=0;exitDy=0;strokeColor=default;align=center;verticalAlign=middle;fontFamily=Helvetica;fontSize=11;fontColor=default;labelBackgroundColor=default;endArrow=none;" parent="1" source="SV3E9Kw29htiZ1d8ENj7-8" edge="1">
          <mxGeometry relative="1" as="geometry">
            <mxPoint x="320" y="380" as="targetPoint" />
          </mxGeometry>
        </mxCell>
        <mxCell id="dh3amedZ29eyjXVZCjvd-48" style="edgeStyle=none;shape=connector;rounded=0;orthogonalLoop=1;jettySize=auto;html=1;exitX=1;exitY=0;exitDx=0;exitDy=0;entryX=0;entryY=0.5;entryDx=0;entryDy=0;strokeColor=default;align=center;verticalAlign=middle;fontFamily=Helvetica;fontSize=11;fontColor=default;labelBackgroundColor=default;endArrow=none;" parent="1" source="SV3E9Kw29htiZ1d8ENj7-8" target="BA5U3kSRvV7oJEMfb4nu-15" edge="1">
          <mxGeometry relative="1" as="geometry" />
        </mxCell>
        <mxCell id="SV3E9Kw29htiZ1d8ENj7-8" value="Patient" style="rounded=1;arcSize=10;whiteSpace=wrap;html=1;align=center;fontSize=18;fillColor=#dae8fc;strokeColor=#6c8ebf;" parent="1" vertex="1">
          <mxGeometry x="140" y="400" width="110" height="60" as="geometry" />
        </mxCell>
        <mxCell id="KLRx96uMBCcEcgTpdciU-147" style="edgeStyle=none;shape=connector;rounded=0;orthogonalLoop=1;jettySize=auto;html=1;exitX=0.5;exitY=1;exitDx=0;exitDy=0;strokeColor=default;align=center;verticalAlign=middle;fontFamily=Helvetica;fontSize=11;fontColor=default;labelBackgroundColor=default;endArrow=none;" parent="1" source="SV3E9Kw29htiZ1d8ENj7-9" target="KLRx96uMBCcEcgTpdciU-92" edge="1">
          <mxGeometry relative="1" as="geometry" />
        </mxCell>
        <mxCell id="KLRx96uMBCcEcgTpdciU-148" style="edgeStyle=none;shape=connector;rounded=0;orthogonalLoop=1;jettySize=auto;html=1;exitX=1;exitY=0.25;exitDx=0;exitDy=0;entryX=0;entryY=0.5;entryDx=0;entryDy=0;strokeColor=default;align=center;verticalAlign=middle;fontFamily=Helvetica;fontSize=11;fontColor=default;labelBackgroundColor=default;endArrow=none;" parent="1" source="SV3E9Kw29htiZ1d8ENj7-9" target="KLRx96uMBCcEcgTpdciU-97" edge="1">
          <mxGeometry relative="1" as="geometry" />
        </mxCell>
        <mxCell id="KLRx96uMBCcEcgTpdciU-149" style="edgeStyle=none;shape=connector;rounded=0;orthogonalLoop=1;jettySize=auto;html=1;exitX=1;exitY=0.75;exitDx=0;exitDy=0;entryX=0;entryY=0;entryDx=0;entryDy=0;strokeColor=default;align=center;verticalAlign=middle;fontFamily=Helvetica;fontSize=11;fontColor=default;labelBackgroundColor=default;endArrow=none;" parent="1" source="SV3E9Kw29htiZ1d8ENj7-9" target="KLRx96uMBCcEcgTpdciU-93" edge="1">
          <mxGeometry relative="1" as="geometry" />
        </mxCell>
        <mxCell id="KLRx96uMBCcEcgTpdciU-151" style="edgeStyle=none;shape=connector;rounded=0;orthogonalLoop=1;jettySize=auto;html=1;exitX=0;exitY=0.5;exitDx=0;exitDy=0;entryX=1;entryY=0.5;entryDx=0;entryDy=0;strokeColor=default;align=center;verticalAlign=middle;fontFamily=Helvetica;fontSize=11;fontColor=default;labelBackgroundColor=default;endArrow=none;" parent="1" source="SV3E9Kw29htiZ1d8ENj7-9" target="KLRx96uMBCcEcgTpdciU-95" edge="1">
          <mxGeometry relative="1" as="geometry" />
        </mxCell>
        <mxCell id="SV3E9Kw29htiZ1d8ENj7-9" value="Shedule" style="rounded=1;arcSize=10;whiteSpace=wrap;html=1;align=center;fontSize=18;fillColor=#d5e8d4;strokeColor=#82b366;" parent="1" vertex="1">
          <mxGeometry x="940" y="370" width="100" height="50" as="geometry" />
        </mxCell>
        <mxCell id="KLRx96uMBCcEcgTpdciU-4" value="Email" style="ellipse;whiteSpace=wrap;html=1;align=center;" parent="1" vertex="1">
          <mxGeometry x="150" y="80" width="90" height="30" as="geometry" />
        </mxCell>
        <mxCell id="KLRx96uMBCcEcgTpdciU-6" value="Password" style="ellipse;whiteSpace=wrap;html=1;align=center;" parent="1" vertex="1">
          <mxGeometry x="55" y="85" width="90" height="30" as="geometry" />
        </mxCell>
        <mxCell id="KLRx96uMBCcEcgTpdciU-7" value="Name" style="ellipse;whiteSpace=wrap;html=1;align=center;" parent="1" vertex="1">
          <mxGeometry x="280" y="85" width="90" height="30" as="geometry" />
        </mxCell>
        <mxCell id="KLRx96uMBCcEcgTpdciU-8" value="First name" style="ellipse;whiteSpace=wrap;html=1;align=center;" parent="1" vertex="1">
          <mxGeometry x="350" y="20" width="90" height="30" as="geometry" />
        </mxCell>
        <mxCell id="KLRx96uMBCcEcgTpdciU-9" value="Middle name" style="ellipse;whiteSpace=wrap;html=1;align=center;" parent="1" vertex="1">
          <mxGeometry x="410" y="40" width="90" height="30" as="geometry" />
        </mxCell>
        <mxCell id="KLRx96uMBCcEcgTpdciU-10" value="Last name" style="ellipse;whiteSpace=wrap;html=1;align=center;" parent="1" vertex="1">
          <mxGeometry x="420" y="70" width="100" height="30" as="geometry" />
        </mxCell>
        <mxCell id="KLRx96uMBCcEcgTpdciU-28" value="" style="endArrow=none;html=1;rounded=0;strokeColor=default;align=center;verticalAlign=middle;fontFamily=Helvetica;fontSize=11;fontColor=default;labelBackgroundColor=default;exitX=0.578;exitY=1.033;exitDx=0;exitDy=0;exitPerimeter=0;entryX=0.4;entryY=-0.017;entryDx=0;entryDy=0;entryPerimeter=0;" parent="1" source="KLRx96uMBCcEcgTpdciU-4" target="SV3E9Kw29htiZ1d8ENj7-2" edge="1">
          <mxGeometry width="50" height="50" relative="1" as="geometry">
            <mxPoint x="210" y="150" as="sourcePoint" />
            <mxPoint x="260" y="100" as="targetPoint" />
          </mxGeometry>
        </mxCell>
        <mxCell id="KLRx96uMBCcEcgTpdciU-29" value="" style="endArrow=none;html=1;rounded=0;strokeColor=default;align=center;verticalAlign=middle;fontFamily=Helvetica;fontSize=11;fontColor=default;labelBackgroundColor=default;exitX=0.5;exitY=0;exitDx=0;exitDy=0;entryX=0.59;entryY=1;entryDx=0;entryDy=0;entryPerimeter=0;" parent="1" source="SV3E9Kw29htiZ1d8ENj7-2" target="KLRx96uMBCcEcgTpdciU-35" edge="1">
          <mxGeometry width="50" height="50" relative="1" as="geometry">
            <mxPoint x="250" y="130" as="sourcePoint" />
            <mxPoint x="270" y="60" as="targetPoint" />
          </mxGeometry>
        </mxCell>
        <mxCell id="KLRx96uMBCcEcgTpdciU-30" value="" style="endArrow=none;html=1;rounded=0;strokeColor=default;align=center;verticalAlign=middle;fontFamily=Helvetica;fontSize=11;fontColor=default;labelBackgroundColor=default;exitX=0.925;exitY=-0.017;exitDx=0;exitDy=0;exitPerimeter=0;entryX=0.222;entryY=0.867;entryDx=0;entryDy=0;entryPerimeter=0;" parent="1" source="SV3E9Kw29htiZ1d8ENj7-2" target="KLRx96uMBCcEcgTpdciU-7" edge="1">
          <mxGeometry width="50" height="50" relative="1" as="geometry">
            <mxPoint x="290" y="170" as="sourcePoint" />
            <mxPoint x="340" y="120" as="targetPoint" />
          </mxGeometry>
        </mxCell>
        <mxCell id="KLRx96uMBCcEcgTpdciU-31" value="" style="endArrow=none;html=1;rounded=0;strokeColor=default;align=center;verticalAlign=middle;fontFamily=Helvetica;fontSize=11;fontColor=default;labelBackgroundColor=default;exitX=0.5;exitY=0;exitDx=0;exitDy=0;" parent="1" source="KLRx96uMBCcEcgTpdciU-7" target="KLRx96uMBCcEcgTpdciU-8" edge="1">
          <mxGeometry width="50" height="50" relative="1" as="geometry">
            <mxPoint x="350" y="100" as="sourcePoint" />
            <mxPoint x="400" y="50" as="targetPoint" />
          </mxGeometry>
        </mxCell>
        <mxCell id="KLRx96uMBCcEcgTpdciU-32" value="" style="endArrow=none;html=1;rounded=0;strokeColor=default;align=center;verticalAlign=middle;fontFamily=Helvetica;fontSize=11;fontColor=default;labelBackgroundColor=default;exitX=1;exitY=0;exitDx=0;exitDy=0;" parent="1" source="KLRx96uMBCcEcgTpdciU-7" target="KLRx96uMBCcEcgTpdciU-9" edge="1">
          <mxGeometry width="50" height="50" relative="1" as="geometry">
            <mxPoint x="380" y="110" as="sourcePoint" />
            <mxPoint x="420" y="80" as="targetPoint" />
          </mxGeometry>
        </mxCell>
        <mxCell id="KLRx96uMBCcEcgTpdciU-33" value="" style="endArrow=none;html=1;rounded=0;strokeColor=default;align=center;verticalAlign=middle;fontFamily=Helvetica;fontSize=11;fontColor=default;labelBackgroundColor=default;" parent="1" source="KLRx96uMBCcEcgTpdciU-7" edge="1">
          <mxGeometry width="50" height="50" relative="1" as="geometry">
            <mxPoint x="400" y="150" as="sourcePoint" />
            <mxPoint x="450" y="100" as="targetPoint" />
          </mxGeometry>
        </mxCell>
        <mxCell id="KLRx96uMBCcEcgTpdciU-35" value="Admin ID" style="ellipse;whiteSpace=wrap;html=1;align=center;fontStyle=4;fontFamily=Helvetica;fontSize=12;fontColor=#FF3333;labelBackgroundColor=default;" parent="1" vertex="1">
          <mxGeometry x="210" y="30" width="90" height="40" as="geometry" />
        </mxCell>
        <mxCell id="KLRx96uMBCcEcgTpdciU-37" value="Phone no" style="ellipse;shape=doubleEllipse;margin=3;whiteSpace=wrap;html=1;align=center;fontFamily=Helvetica;fontSize=11;fontColor=default;labelBackgroundColor=default;" parent="1" vertex="1">
          <mxGeometry x="1040" y="115" width="100" height="40" as="geometry" />
        </mxCell>
        <mxCell id="KLRx96uMBCcEcgTpdciU-38" value="Doctor_ID" style="ellipse;whiteSpace=wrap;html=1;align=center;fontStyle=4;fontFamily=Helvetica;fontSize=11;fontColor=#FF3333;labelBackgroundColor=default;" parent="1" vertex="1">
          <mxGeometry x="1010" y="160" width="100" height="40" as="geometry" />
        </mxCell>
        <mxCell id="KLRx96uMBCcEcgTpdciU-103" style="edgeStyle=none;shape=connector;rounded=0;orthogonalLoop=1;jettySize=auto;html=1;exitX=0.5;exitY=0;exitDx=0;exitDy=0;strokeColor=default;align=center;verticalAlign=middle;fontFamily=Helvetica;fontSize=11;fontColor=default;labelBackgroundColor=default;endArrow=none;" parent="1" source="KLRx96uMBCcEcgTpdciU-39" target="KLRx96uMBCcEcgTpdciU-41" edge="1">
          <mxGeometry relative="1" as="geometry" />
        </mxCell>
        <mxCell id="KLRx96uMBCcEcgTpdciU-104" style="edgeStyle=none;shape=connector;rounded=0;orthogonalLoop=1;jettySize=auto;html=1;exitX=0;exitY=0;exitDx=0;exitDy=0;entryX=0.5;entryY=1;entryDx=0;entryDy=0;strokeColor=default;align=center;verticalAlign=middle;fontFamily=Helvetica;fontSize=11;fontColor=default;labelBackgroundColor=default;endArrow=none;" parent="1" source="KLRx96uMBCcEcgTpdciU-39" target="KLRx96uMBCcEcgTpdciU-40" edge="1">
          <mxGeometry relative="1" as="geometry" />
        </mxCell>
        <mxCell id="KLRx96uMBCcEcgTpdciU-105" style="edgeStyle=none;shape=connector;rounded=0;orthogonalLoop=1;jettySize=auto;html=1;exitX=0;exitY=0.5;exitDx=0;exitDy=0;entryX=1;entryY=1;entryDx=0;entryDy=0;strokeColor=default;align=center;verticalAlign=middle;fontFamily=Helvetica;fontSize=11;fontColor=default;labelBackgroundColor=default;endArrow=none;" parent="1" source="KLRx96uMBCcEcgTpdciU-39" target="KLRx96uMBCcEcgTpdciU-42" edge="1">
          <mxGeometry relative="1" as="geometry" />
        </mxCell>
        <mxCell id="KLRx96uMBCcEcgTpdciU-39" value="&amp;nbsp;Name" style="ellipse;whiteSpace=wrap;html=1;align=center;fontFamily=Helvetica;fontSize=11;fontColor=default;labelBackgroundColor=default;" parent="1" vertex="1">
          <mxGeometry x="780" y="95" width="100" height="40" as="geometry" />
        </mxCell>
        <mxCell id="KLRx96uMBCcEcgTpdciU-109" style="edgeStyle=none;shape=connector;rounded=0;orthogonalLoop=1;jettySize=auto;html=1;exitX=1;exitY=0.5;exitDx=0;exitDy=0;strokeColor=default;align=center;verticalAlign=middle;fontFamily=Helvetica;fontSize=11;fontColor=default;labelBackgroundColor=default;endArrow=none;" parent="1" source="KLRx96uMBCcEcgTpdciU-40" edge="1">
          <mxGeometry relative="1" as="geometry">
            <mxPoint x="830" y="75" as="targetPoint" />
          </mxGeometry>
        </mxCell>
        <mxCell id="KLRx96uMBCcEcgTpdciU-40" value="Last name" style="ellipse;whiteSpace=wrap;html=1;align=center;fontFamily=Helvetica;fontSize=11;fontColor=default;labelBackgroundColor=default;" parent="1" vertex="1">
          <mxGeometry x="730" y="55" width="100" height="40" as="geometry" />
        </mxCell>
        <mxCell id="KLRx96uMBCcEcgTpdciU-41" value="Middle name" style="ellipse;whiteSpace=wrap;html=1;align=center;fontFamily=Helvetica;fontSize=11;fontColor=default;labelBackgroundColor=default;" parent="1" vertex="1">
          <mxGeometry x="780" y="15" width="100" height="40" as="geometry" />
        </mxCell>
        <mxCell id="KLRx96uMBCcEcgTpdciU-42" value="First name" style="ellipse;whiteSpace=wrap;html=1;align=center;fontFamily=Helvetica;fontSize=11;fontColor=default;labelBackgroundColor=default;" parent="1" vertex="1">
          <mxGeometry x="660" y="85" width="100" height="40" as="geometry" />
        </mxCell>
        <mxCell id="KLRx96uMBCcEcgTpdciU-43" value="Year_of_exp" style="ellipse;whiteSpace=wrap;html=1;align=center;fontFamily=Helvetica;fontSize=11;fontColor=default;labelBackgroundColor=default;" parent="1" vertex="1">
          <mxGeometry x="1000" y="20" width="100" height="40" as="geometry" />
        </mxCell>
        <mxCell id="KLRx96uMBCcEcgTpdciU-45" value="Specialization" style="ellipse;whiteSpace=wrap;html=1;align=center;fontFamily=Helvetica;fontSize=11;fontColor=default;labelBackgroundColor=default;" parent="1" vertex="1">
          <mxGeometry x="1100" y="15" width="100" height="40" as="geometry" />
        </mxCell>
        <mxCell id="KLRx96uMBCcEcgTpdciU-46" value="&amp;nbsp;Email" style="ellipse;whiteSpace=wrap;html=1;align=center;fontFamily=Helvetica;fontSize=11;fontColor=default;labelBackgroundColor=default;" parent="1" vertex="1">
          <mxGeometry x="890" y="15" width="100" height="40" as="geometry" />
        </mxCell>
        <mxCell id="KLRx96uMBCcEcgTpdciU-47" value="Attribute" style="ellipse;whiteSpace=wrap;html=1;align=center;fontFamily=Helvetica;fontSize=11;fontColor=default;labelBackgroundColor=default;" parent="1" vertex="1">
          <mxGeometry x="760" y="170" width="90" height="30" as="geometry" />
        </mxCell>
        <mxCell id="KLRx96uMBCcEcgTpdciU-48" value="Qualification" style="ellipse;whiteSpace=wrap;html=1;align=center;fontFamily=Helvetica;fontSize=11;fontColor=default;labelBackgroundColor=default;" parent="1" vertex="1">
          <mxGeometry x="640" y="135" width="100" height="40" as="geometry" />
        </mxCell>
        <mxCell id="KLRx96uMBCcEcgTpdciU-49" value="Appoint._ID" style="ellipse;whiteSpace=wrap;html=1;align=center;fontStyle=4;fontFamily=Helvetica;fontSize=11;fontColor=#FF3333;labelBackgroundColor=default;" parent="1" vertex="1">
          <mxGeometry x="410" y="270" width="85" height="30" as="geometry" />
        </mxCell>
        <mxCell id="KLRx96uMBCcEcgTpdciU-50" value="" style="endArrow=none;html=1;rounded=0;strokeColor=default;align=center;verticalAlign=middle;fontFamily=Helvetica;fontSize=11;fontColor=default;labelBackgroundColor=default;exitX=0.167;exitY=-0.033;exitDx=0;exitDy=0;exitPerimeter=0;" parent="1" source="SV3E9Kw29htiZ1d8ENj7-2" target="KLRx96uMBCcEcgTpdciU-6" edge="1">
          <mxGeometry width="50" height="50" relative="1" as="geometry">
            <mxPoint x="70" y="160" as="sourcePoint" />
            <mxPoint x="110" y="120" as="targetPoint" />
          </mxGeometry>
        </mxCell>
        <mxCell id="KLRx96uMBCcEcgTpdciU-51" value="Reason" style="ellipse;whiteSpace=wrap;html=1;align=center;fontFamily=Helvetica;fontSize=11;fontColor=default;labelBackgroundColor=default;" parent="1" vertex="1">
          <mxGeometry x="495" y="260" width="90" height="30" as="geometry" />
        </mxCell>
        <mxCell id="KLRx96uMBCcEcgTpdciU-52" value="Doctor_ID" style="ellipse;whiteSpace=wrap;html=1;align=center;fontFamily=Helvetica;fontSize=11;fontColor=default;labelBackgroundColor=default;" parent="1" vertex="1">
          <mxGeometry x="660" y="290" width="80" height="30" as="geometry" />
        </mxCell>
        <mxCell id="KLRx96uMBCcEcgTpdciU-53" value="Status" style="ellipse;whiteSpace=wrap;html=1;align=center;fontFamily=Helvetica;fontSize=11;fontColor=default;labelBackgroundColor=default;" parent="1" vertex="1">
          <mxGeometry x="390" y="310" width="90" height="30" as="geometry" />
        </mxCell>
        <mxCell id="BA5U3kSRvV7oJEMfb4nu-3" style="edgeStyle=none;shape=connector;rounded=0;orthogonalLoop=1;jettySize=auto;html=1;exitX=0;exitY=0;exitDx=0;exitDy=0;entryX=0.75;entryY=1;entryDx=0;entryDy=0;strokeColor=default;align=center;verticalAlign=middle;fontFamily=Helvetica;fontSize=11;fontColor=default;labelBackgroundColor=default;endArrow=none;" parent="1" source="KLRx96uMBCcEcgTpdciU-54" target="SV3E9Kw29htiZ1d8ENj7-4" edge="1">
          <mxGeometry relative="1" as="geometry" />
        </mxCell>
        <mxCell id="KLRx96uMBCcEcgTpdciU-54" value="Joining date" style="ellipse;whiteSpace=wrap;html=1;align=center;fontFamily=Helvetica;fontSize=11;fontColor=default;labelBackgroundColor=default;" parent="1" vertex="1">
          <mxGeometry x="950" y="210" width="80" height="30" as="geometry" />
        </mxCell>
        <mxCell id="KLRx96uMBCcEcgTpdciU-55" value="Patient_ID" style="ellipse;whiteSpace=wrap;html=1;align=center;fontFamily=Helvetica;fontSize=11;fontColor=default;labelBackgroundColor=default;" parent="1" vertex="1">
          <mxGeometry x="585" y="250" width="85" height="30" as="geometry" />
        </mxCell>
        <mxCell id="KLRx96uMBCcEcgTpdciU-57" value="Age" style="ellipse;whiteSpace=wrap;html=1;align=center;fontFamily=Helvetica;fontSize=11;fontColor=default;labelBackgroundColor=default;" parent="1" vertex="1">
          <mxGeometry x="242.5" y="484" width="70" height="26" as="geometry" />
        </mxCell>
        <mxCell id="KLRx96uMBCcEcgTpdciU-58" value="Gender" style="ellipse;whiteSpace=wrap;html=1;align=center;fontFamily=Helvetica;fontSize=11;fontColor=default;labelBackgroundColor=default;" parent="1" vertex="1">
          <mxGeometry x="210" y="510" width="75" height="20" as="geometry" />
        </mxCell>
        <mxCell id="KLRx96uMBCcEcgTpdciU-59" value="Medical_his" style="ellipse;whiteSpace=wrap;html=1;align=center;fontFamily=Helvetica;fontSize=11;fontColor=default;labelBackgroundColor=default;" parent="1" vertex="1">
          <mxGeometry x="140" y="500" width="80" height="30" as="geometry" />
        </mxCell>
        <mxCell id="KLRx96uMBCcEcgTpdciU-61" value="Weight" style="ellipse;whiteSpace=wrap;html=1;align=center;fontFamily=Helvetica;fontSize=11;fontColor=default;labelBackgroundColor=default;" parent="1" vertex="1">
          <mxGeometry x="55" y="480" width="90" height="30" as="geometry" />
        </mxCell>
        <mxCell id="KLRx96uMBCcEcgTpdciU-118" style="edgeStyle=none;shape=connector;rounded=0;orthogonalLoop=1;jettySize=auto;html=1;exitX=0;exitY=0;exitDx=0;exitDy=0;entryX=1;entryY=1;entryDx=0;entryDy=0;strokeColor=default;align=center;verticalAlign=middle;fontFamily=Helvetica;fontSize=11;fontColor=default;labelBackgroundColor=default;endArrow=none;" parent="1" source="KLRx96uMBCcEcgTpdciU-62" target="KLRx96uMBCcEcgTpdciU-65" edge="1">
          <mxGeometry relative="1" as="geometry" />
        </mxCell>
        <mxCell id="KLRx96uMBCcEcgTpdciU-119" style="edgeStyle=none;shape=connector;rounded=0;orthogonalLoop=1;jettySize=auto;html=1;exitX=0;exitY=0.5;exitDx=0;exitDy=0;entryX=1;entryY=1;entryDx=0;entryDy=0;strokeColor=default;align=center;verticalAlign=middle;fontFamily=Helvetica;fontSize=11;fontColor=default;labelBackgroundColor=default;endArrow=none;" parent="1" source="KLRx96uMBCcEcgTpdciU-62" target="KLRx96uMBCcEcgTpdciU-66" edge="1">
          <mxGeometry relative="1" as="geometry" />
        </mxCell>
        <mxCell id="KLRx96uMBCcEcgTpdciU-120" style="edgeStyle=none;shape=connector;rounded=0;orthogonalLoop=1;jettySize=auto;html=1;exitX=1;exitY=0.5;exitDx=0;exitDy=0;entryX=0.5;entryY=1;entryDx=0;entryDy=0;strokeColor=default;align=center;verticalAlign=middle;fontFamily=Helvetica;fontSize=11;fontColor=default;labelBackgroundColor=default;endArrow=none;" parent="1" source="KLRx96uMBCcEcgTpdciU-62" target="KLRx96uMBCcEcgTpdciU-64" edge="1">
          <mxGeometry relative="1" as="geometry" />
        </mxCell>
        <mxCell id="BA5U3kSRvV7oJEMfb4nu-4" style="edgeStyle=none;shape=connector;rounded=0;orthogonalLoop=1;jettySize=auto;html=1;exitX=0.5;exitY=0;exitDx=0;exitDy=0;strokeColor=default;align=center;verticalAlign=middle;fontFamily=Helvetica;fontSize=11;fontColor=default;labelBackgroundColor=default;endArrow=none;" parent="1" source="KLRx96uMBCcEcgTpdciU-62" target="KLRx96uMBCcEcgTpdciU-63" edge="1">
          <mxGeometry relative="1" as="geometry" />
        </mxCell>
        <mxCell id="KLRx96uMBCcEcgTpdciU-62" value="Address" style="ellipse;whiteSpace=wrap;html=1;align=center;fontFamily=Helvetica;fontSize=11;fontColor=default;labelBackgroundColor=default;" parent="1" vertex="1">
          <mxGeometry x="150" y="350" width="100" height="30" as="geometry" />
        </mxCell>
        <mxCell id="KLRx96uMBCcEcgTpdciU-63" value="State" style="ellipse;whiteSpace=wrap;html=1;align=center;fontFamily=Helvetica;fontSize=11;fontColor=default;labelBackgroundColor=default;" parent="1" vertex="1">
          <mxGeometry x="170" y="310" width="70" height="30" as="geometry" />
        </mxCell>
        <mxCell id="KLRx96uMBCcEcgTpdciU-64" value="Zipcode" style="ellipse;whiteSpace=wrap;html=1;align=center;fontFamily=Helvetica;fontSize=11;fontColor=default;labelBackgroundColor=default;" parent="1" vertex="1">
          <mxGeometry x="235" y="325" width="70" height="30" as="geometry" />
        </mxCell>
        <mxCell id="KLRx96uMBCcEcgTpdciU-65" value="City" style="ellipse;whiteSpace=wrap;html=1;align=center;fontFamily=Helvetica;fontSize=11;fontColor=default;labelBackgroundColor=default;" parent="1" vertex="1">
          <mxGeometry x="100" y="310" width="70" height="30" as="geometry" />
        </mxCell>
        <mxCell id="KLRx96uMBCcEcgTpdciU-66" value="StreetName" style="ellipse;whiteSpace=wrap;html=1;align=center;fontFamily=Helvetica;fontSize=11;fontColor=default;labelBackgroundColor=default;" parent="1" vertex="1">
          <mxGeometry x="55" y="330" width="70" height="30" as="geometry" />
        </mxCell>
        <mxCell id="KLRx96uMBCcEcgTpdciU-131" style="edgeStyle=none;shape=connector;rounded=0;orthogonalLoop=1;jettySize=auto;html=1;exitX=1;exitY=0.5;exitDx=0;exitDy=0;entryX=0;entryY=0.5;entryDx=0;entryDy=0;strokeColor=default;align=center;verticalAlign=middle;fontFamily=Helvetica;fontSize=11;fontColor=default;labelBackgroundColor=default;endArrow=none;" parent="1" source="KLRx96uMBCcEcgTpdciU-67" target="KLRx96uMBCcEcgTpdciU-74" edge="1">
          <mxGeometry relative="1" as="geometry" />
        </mxCell>
        <mxCell id="KLRx96uMBCcEcgTpdciU-132" style="edgeStyle=none;shape=connector;rounded=0;orthogonalLoop=1;jettySize=auto;html=1;exitX=1;exitY=1;exitDx=0;exitDy=0;entryX=0;entryY=0.5;entryDx=0;entryDy=0;strokeColor=default;align=center;verticalAlign=middle;fontFamily=Helvetica;fontSize=11;fontColor=default;labelBackgroundColor=default;endArrow=none;" parent="1" source="KLRx96uMBCcEcgTpdciU-67" target="KLRx96uMBCcEcgTpdciU-75" edge="1">
          <mxGeometry relative="1" as="geometry" />
        </mxCell>
        <mxCell id="KLRx96uMBCcEcgTpdciU-133" style="edgeStyle=none;shape=connector;rounded=0;orthogonalLoop=1;jettySize=auto;html=1;exitX=0.5;exitY=1;exitDx=0;exitDy=0;entryX=0;entryY=0.5;entryDx=0;entryDy=0;strokeColor=default;align=center;verticalAlign=middle;fontFamily=Helvetica;fontSize=11;fontColor=default;labelBackgroundColor=default;endArrow=none;" parent="1" source="KLRx96uMBCcEcgTpdciU-67" target="KLRx96uMBCcEcgTpdciU-76" edge="1">
          <mxGeometry relative="1" as="geometry" />
        </mxCell>
        <mxCell id="KLRx96uMBCcEcgTpdciU-67" value="Name" style="ellipse;whiteSpace=wrap;html=1;align=center;fontFamily=Helvetica;fontSize=11;fontColor=default;labelBackgroundColor=default;" parent="1" vertex="1">
          <mxGeometry x="255" y="420" width="90" height="26" as="geometry" />
        </mxCell>
        <mxCell id="KLRx96uMBCcEcgTpdciU-68" value="BMI" style="ellipse;whiteSpace=wrap;html=1;align=center;fontFamily=Helvetica;fontSize=11;fontColor=default;labelBackgroundColor=default;" parent="1" vertex="1">
          <mxGeometry x="40" y="411" width="85" height="26" as="geometry" />
        </mxCell>
        <mxCell id="BA5U3kSRvV7oJEMfb4nu-5" style="edgeStyle=none;shape=connector;rounded=0;orthogonalLoop=1;jettySize=auto;html=1;exitX=1;exitY=0.5;exitDx=0;exitDy=0;entryX=0;entryY=0.75;entryDx=0;entryDy=0;strokeColor=default;align=center;verticalAlign=middle;fontFamily=Helvetica;fontSize=11;fontColor=default;labelBackgroundColor=default;endArrow=none;" parent="1" source="KLRx96uMBCcEcgTpdciU-69" target="SV3E9Kw29htiZ1d8ENj7-8" edge="1">
          <mxGeometry relative="1" as="geometry" />
        </mxCell>
        <mxCell id="KLRx96uMBCcEcgTpdciU-69" value="Blood_group" style="ellipse;whiteSpace=wrap;html=1;align=center;fontFamily=Helvetica;fontSize=11;fontColor=default;labelBackgroundColor=default;" parent="1" vertex="1">
          <mxGeometry x="40" y="441" width="85" height="26" as="geometry" />
        </mxCell>
        <mxCell id="KLRx96uMBCcEcgTpdciU-71" style="edgeStyle=none;shape=connector;rounded=0;orthogonalLoop=1;jettySize=auto;html=1;exitX=0;exitY=0.5;exitDx=0;exitDy=0;strokeColor=default;align=center;verticalAlign=middle;fontFamily=Helvetica;fontSize=11;fontColor=default;labelBackgroundColor=default;endArrow=none;" parent="1" source="KLRx96uMBCcEcgTpdciU-52" target="KLRx96uMBCcEcgTpdciU-52" edge="1">
          <mxGeometry relative="1" as="geometry" />
        </mxCell>
        <mxCell id="KLRx96uMBCcEcgTpdciU-72" style="edgeStyle=none;shape=connector;rounded=0;orthogonalLoop=1;jettySize=auto;html=1;exitX=1;exitY=0.5;exitDx=0;exitDy=0;strokeColor=default;align=center;verticalAlign=middle;fontFamily=Helvetica;fontSize=11;fontColor=default;labelBackgroundColor=default;endArrow=none;" parent="1" source="KLRx96uMBCcEcgTpdciU-52" target="KLRx96uMBCcEcgTpdciU-52" edge="1">
          <mxGeometry relative="1" as="geometry" />
        </mxCell>
        <mxCell id="KLRx96uMBCcEcgTpdciU-73" value="Patient_ID" style="ellipse;whiteSpace=wrap;html=1;align=center;fontStyle=4;fontFamily=Helvetica;fontSize=11;fontColor=#FF3333;labelBackgroundColor=default;" parent="1" vertex="1">
          <mxGeometry x="250" y="449" width="85" height="33" as="geometry" />
        </mxCell>
        <mxCell id="KLRx96uMBCcEcgTpdciU-74" value="FirstName" style="ellipse;whiteSpace=wrap;html=1;align=center;fontFamily=Helvetica;fontSize=11;fontColor=default;labelBackgroundColor=default;" parent="1" vertex="1">
          <mxGeometry x="360" y="404.5" width="80" height="19" as="geometry" />
        </mxCell>
        <mxCell id="KLRx96uMBCcEcgTpdciU-75" value="MiddleName" style="ellipse;whiteSpace=wrap;html=1;align=center;fontFamily=Helvetica;fontSize=11;fontColor=default;labelBackgroundColor=default;" parent="1" vertex="1">
          <mxGeometry x="360" y="422" width="80" height="19" as="geometry" />
        </mxCell>
        <mxCell id="KLRx96uMBCcEcgTpdciU-76" value="LastName" style="ellipse;whiteSpace=wrap;html=1;align=center;fontFamily=Helvetica;fontSize=11;fontColor=default;labelBackgroundColor=default;" parent="1" vertex="1">
          <mxGeometry x="360" y="444" width="80" height="19" as="geometry" />
        </mxCell>
        <mxCell id="KLRx96uMBCcEcgTpdciU-78" value="&amp;nbsp;Name" style="ellipse;whiteSpace=wrap;html=1;align=center;fontFamily=Helvetica;fontSize=11;fontColor=default;labelBackgroundColor=default;" parent="1" vertex="1">
          <mxGeometry x="110" y="660" width="85" height="30" as="geometry" />
        </mxCell>
        <mxCell id="KLRx96uMBCcEcgTpdciU-79" value="Role" style="ellipse;whiteSpace=wrap;html=1;align=center;fontFamily=Helvetica;fontSize=11;fontColor=default;labelBackgroundColor=default;" parent="1" vertex="1">
          <mxGeometry x="120" y="700" width="85" height="30" as="geometry" />
        </mxCell>
        <mxCell id="KLRx96uMBCcEcgTpdciU-81" value="Email" style="ellipse;whiteSpace=wrap;html=1;align=center;fontFamily=Helvetica;fontSize=11;fontColor=default;labelBackgroundColor=default;" parent="1" vertex="1">
          <mxGeometry x="235" y="755" width="85" height="30" as="geometry" />
        </mxCell>
        <mxCell id="KLRx96uMBCcEcgTpdciU-82" value="Payment_Status" style="ellipse;whiteSpace=wrap;html=1;align=center;fontFamily=Helvetica;fontSize=11;fontColor=default;labelBackgroundColor=default;" parent="1" vertex="1">
          <mxGeometry x="585" y="738.75" width="100" height="37.5" as="geometry" />
        </mxCell>
        <mxCell id="KLRx96uMBCcEcgTpdciU-83" value="Staff_ID" style="ellipse;whiteSpace=wrap;html=1;align=center;fontStyle=4;fontFamily=Helvetica;fontSize=11;fontColor=#FF3333;labelBackgroundColor=default;" parent="1" vertex="1">
          <mxGeometry x="127" y="745" width="93" height="25" as="geometry" />
        </mxCell>
        <mxCell id="KLRx96uMBCcEcgTpdciU-84" value="Total Amount" style="ellipse;whiteSpace=wrap;html=1;align=center;fontFamily=Helvetica;fontSize=11;fontColor=default;labelBackgroundColor=default;" parent="1" vertex="1">
          <mxGeometry x="670" y="775" width="100" height="27.5" as="geometry" />
        </mxCell>
        <mxCell id="KLRx96uMBCcEcgTpdciU-86" value="Billing date" style="ellipse;whiteSpace=wrap;html=1;align=center;fontFamily=Helvetica;fontSize=11;fontColor=default;labelBackgroundColor=default;" parent="1" vertex="1">
          <mxGeometry x="820" y="645" width="90" height="35" as="geometry" />
        </mxCell>
        <mxCell id="KLRx96uMBCcEcgTpdciU-88" value="Patient_ID" style="ellipse;whiteSpace=wrap;html=1;align=center;fontFamily=Helvetica;fontSize=11;fontColor=default;labelBackgroundColor=default;" parent="1" vertex="1">
          <mxGeometry x="585" y="692.5" width="100" height="35" as="geometry" />
        </mxCell>
        <mxCell id="KLRx96uMBCcEcgTpdciU-90" value="Service provided" style="ellipse;whiteSpace=wrap;html=1;align=center;fontFamily=Helvetica;fontSize=11;fontColor=default;labelBackgroundColor=default;" parent="1" vertex="1">
          <mxGeometry x="780" y="775" width="100" height="27.5" as="geometry" />
        </mxCell>
        <mxCell id="KLRx96uMBCcEcgTpdciU-91" value="Billing_ID" style="ellipse;whiteSpace=wrap;html=1;align=center;fontStyle=4;fontFamily=Helvetica;fontSize=11;fontColor=#FF3333;labelBackgroundColor=default;" parent="1" vertex="1">
          <mxGeometry x="860" y="725" width="90" height="30" as="geometry" />
        </mxCell>
        <mxCell id="KLRx96uMBCcEcgTpdciU-92" value="Shedule_ID" style="ellipse;whiteSpace=wrap;html=1;align=center;fontStyle=4;fontFamily=Helvetica;fontSize=11;fontColor=#FF3333;labelBackgroundColor=default;" parent="1" vertex="1">
          <mxGeometry x="990" y="444" width="90" height="30" as="geometry" />
        </mxCell>
        <mxCell id="KLRx96uMBCcEcgTpdciU-93" value="Availability" style="ellipse;whiteSpace=wrap;html=1;align=center;fontFamily=Helvetica;fontSize=11;fontColor=default;labelBackgroundColor=default;" parent="1" vertex="1">
          <mxGeometry x="1060" y="411" width="90" height="25" as="geometry" />
        </mxCell>
        <mxCell id="KLRx96uMBCcEcgTpdciU-94" value="End_Time" style="ellipse;whiteSpace=wrap;html=1;align=center;fontFamily=Helvetica;fontSize=11;fontColor=default;labelBackgroundColor=default;" parent="1" vertex="1">
          <mxGeometry x="890" y="449" width="90" height="25" as="geometry" />
        </mxCell>
        <mxCell id="KLRx96uMBCcEcgTpdciU-95" value="Date" style="ellipse;whiteSpace=wrap;html=1;align=center;fontFamily=Helvetica;fontSize=11;fontColor=default;labelBackgroundColor=default;" parent="1" vertex="1">
          <mxGeometry x="840" y="380" width="90" height="30" as="geometry" />
        </mxCell>
        <mxCell id="KLRx96uMBCcEcgTpdciU-96" value="Start_Time" style="ellipse;whiteSpace=wrap;html=1;align=center;fontFamily=Helvetica;fontSize=11;fontColor=default;labelBackgroundColor=default;" parent="1" vertex="1">
          <mxGeometry x="840" y="413.5" width="90" height="25" as="geometry" />
        </mxCell>
        <mxCell id="KLRx96uMBCcEcgTpdciU-97" value="Doctor_ID" style="ellipse;whiteSpace=wrap;html=1;align=center;fontFamily=Helvetica;fontSize=11;fontColor=default;labelBackgroundColor=default;" parent="1" vertex="1">
          <mxGeometry x="1055" y="379.5" width="90" height="25" as="geometry" />
        </mxCell>
        <mxCell id="KLRx96uMBCcEcgTpdciU-98" style="edgeStyle=none;shape=connector;rounded=0;orthogonalLoop=1;jettySize=auto;html=1;exitX=0.5;exitY=0;exitDx=0;exitDy=0;entryX=0.42;entryY=0.975;entryDx=0;entryDy=0;entryPerimeter=0;strokeColor=default;align=center;verticalAlign=middle;fontFamily=Helvetica;fontSize=11;fontColor=default;labelBackgroundColor=default;endArrow=none;" parent="1" source="SV3E9Kw29htiZ1d8ENj7-4" target="KLRx96uMBCcEcgTpdciU-46" edge="1">
          <mxGeometry relative="1" as="geometry" />
        </mxCell>
        <mxCell id="KLRx96uMBCcEcgTpdciU-101" style="edgeStyle=none;shape=connector;rounded=0;orthogonalLoop=1;jettySize=auto;html=1;exitX=0;exitY=0.5;exitDx=0;exitDy=0;entryX=1.04;entryY=0.35;entryDx=0;entryDy=0;entryPerimeter=0;strokeColor=default;align=center;verticalAlign=middle;fontFamily=Helvetica;fontSize=11;fontColor=default;labelBackgroundColor=default;endArrow=none;" parent="1" source="SV3E9Kw29htiZ1d8ENj7-4" target="KLRx96uMBCcEcgTpdciU-47" edge="1">
          <mxGeometry relative="1" as="geometry" />
        </mxCell>
        <mxCell id="KLRx96uMBCcEcgTpdciU-107" style="edgeStyle=none;shape=connector;rounded=0;orthogonalLoop=1;jettySize=auto;html=1;exitX=0.75;exitY=0;exitDx=0;exitDy=0;entryX=0.3;entryY=1.025;entryDx=0;entryDy=0;entryPerimeter=0;strokeColor=default;align=center;verticalAlign=middle;fontFamily=Helvetica;fontSize=11;fontColor=default;labelBackgroundColor=default;endArrow=none;" parent="1" source="SV3E9Kw29htiZ1d8ENj7-4" target="KLRx96uMBCcEcgTpdciU-43" edge="1">
          <mxGeometry relative="1" as="geometry" />
        </mxCell>
        <mxCell id="KLRx96uMBCcEcgTpdciU-113" style="edgeStyle=none;shape=connector;rounded=0;orthogonalLoop=1;jettySize=auto;html=1;exitX=0.25;exitY=0;exitDx=0;exitDy=0;entryX=0.778;entryY=1;entryDx=0;entryDy=0;entryPerimeter=0;strokeColor=default;align=center;verticalAlign=middle;fontFamily=Helvetica;fontSize=11;fontColor=default;labelBackgroundColor=default;endArrow=none;" parent="1" source="SV3E9Kw29htiZ1d8ENj7-5" target="KLRx96uMBCcEcgTpdciU-51" edge="1">
          <mxGeometry relative="1" as="geometry" />
        </mxCell>
        <mxCell id="KLRx96uMBCcEcgTpdciU-123" style="edgeStyle=none;shape=connector;rounded=0;orthogonalLoop=1;jettySize=auto;html=1;exitX=0;exitY=1;exitDx=0;exitDy=0;strokeColor=default;align=center;verticalAlign=middle;fontFamily=Helvetica;fontSize=11;fontColor=default;labelBackgroundColor=default;endArrow=none;" parent="1" source="SV3E9Kw29htiZ1d8ENj7-8" target="SV3E9Kw29htiZ1d8ENj7-8" edge="1">
          <mxGeometry relative="1" as="geometry" />
        </mxCell>
        <mxCell id="KLRx96uMBCcEcgTpdciU-127" style="edgeStyle=none;shape=connector;rounded=0;orthogonalLoop=1;jettySize=auto;html=1;exitX=1;exitY=0.75;exitDx=0;exitDy=0;entryX=0.047;entryY=0.333;entryDx=0;entryDy=0;entryPerimeter=0;strokeColor=default;align=center;verticalAlign=middle;fontFamily=Helvetica;fontSize=11;fontColor=default;labelBackgroundColor=default;endArrow=none;" parent="1" source="SV3E9Kw29htiZ1d8ENj7-8" target="KLRx96uMBCcEcgTpdciU-73" edge="1">
          <mxGeometry relative="1" as="geometry" />
        </mxCell>
        <mxCell id="KLRx96uMBCcEcgTpdciU-129" style="edgeStyle=none;shape=connector;rounded=0;orthogonalLoop=1;jettySize=auto;html=1;exitX=0.75;exitY=1;exitDx=0;exitDy=0;entryX=0.267;entryY=0.1;entryDx=0;entryDy=0;entryPerimeter=0;strokeColor=default;align=center;verticalAlign=middle;fontFamily=Helvetica;fontSize=11;fontColor=default;labelBackgroundColor=default;endArrow=none;" parent="1" source="SV3E9Kw29htiZ1d8ENj7-8" target="KLRx96uMBCcEcgTpdciU-58" edge="1">
          <mxGeometry relative="1" as="geometry" />
        </mxCell>
        <mxCell id="KLRx96uMBCcEcgTpdciU-140" style="edgeStyle=none;shape=connector;rounded=0;orthogonalLoop=1;jettySize=auto;html=1;exitX=0;exitY=1;exitDx=0;exitDy=0;entryX=0.97;entryY=0.273;entryDx=0;entryDy=0;entryPerimeter=0;strokeColor=default;align=center;verticalAlign=middle;fontFamily=Helvetica;fontSize=11;fontColor=default;labelBackgroundColor=default;endArrow=none;" parent="1" source="SV3E9Kw29htiZ1d8ENj7-6" target="KLRx96uMBCcEcgTpdciU-82" edge="1">
          <mxGeometry relative="1" as="geometry" />
        </mxCell>
        <mxCell id="KLRx96uMBCcEcgTpdciU-142" style="edgeStyle=none;shape=connector;rounded=0;orthogonalLoop=1;jettySize=auto;html=1;exitX=0.75;exitY=1;exitDx=0;exitDy=0;entryX=0.28;entryY=0.109;entryDx=0;entryDy=0;entryPerimeter=0;strokeColor=default;align=center;verticalAlign=middle;fontFamily=Helvetica;fontSize=11;fontColor=default;labelBackgroundColor=default;endArrow=none;" parent="1" source="SV3E9Kw29htiZ1d8ENj7-6" target="KLRx96uMBCcEcgTpdciU-90" edge="1">
          <mxGeometry relative="1" as="geometry" />
        </mxCell>
        <mxCell id="KLRx96uMBCcEcgTpdciU-146" style="edgeStyle=none;shape=connector;rounded=0;orthogonalLoop=1;jettySize=auto;html=1;exitX=0.25;exitY=1;exitDx=0;exitDy=0;entryX=0.667;entryY=-0.08;entryDx=0;entryDy=0;entryPerimeter=0;strokeColor=default;align=center;verticalAlign=middle;fontFamily=Helvetica;fontSize=11;fontColor=default;labelBackgroundColor=default;endArrow=none;" parent="1" source="SV3E9Kw29htiZ1d8ENj7-9" target="KLRx96uMBCcEcgTpdciU-94" edge="1">
          <mxGeometry relative="1" as="geometry" />
        </mxCell>
        <mxCell id="KLRx96uMBCcEcgTpdciU-150" style="edgeStyle=none;shape=connector;rounded=0;orthogonalLoop=1;jettySize=auto;html=1;exitX=0;exitY=1;exitDx=0;exitDy=0;entryX=0.956;entryY=0.26;entryDx=0;entryDy=0;entryPerimeter=0;strokeColor=default;align=center;verticalAlign=middle;fontFamily=Helvetica;fontSize=11;fontColor=default;labelBackgroundColor=default;endArrow=none;" parent="1" source="SV3E9Kw29htiZ1d8ENj7-9" target="KLRx96uMBCcEcgTpdciU-96" edge="1">
          <mxGeometry relative="1" as="geometry" />
        </mxCell>
        <mxCell id="BA5U3kSRvV7oJEMfb4nu-7" style="edgeStyle=none;shape=connector;rounded=0;orthogonalLoop=1;jettySize=auto;html=1;exitX=0.5;exitY=1;exitDx=0;exitDy=0;strokeColor=default;align=center;verticalAlign=middle;fontFamily=Helvetica;fontSize=11;fontColor=default;labelBackgroundColor=default;endArrow=none;" parent="1" source="KLRx96uMBCcEcgTpdciU-76" target="KLRx96uMBCcEcgTpdciU-76" edge="1">
          <mxGeometry relative="1" as="geometry" />
        </mxCell>
        <mxCell id="dh3amedZ29eyjXVZCjvd-16" style="edgeStyle=none;shape=link;rounded=0;orthogonalLoop=1;jettySize=auto;html=1;exitX=1;exitY=0.5;exitDx=0;exitDy=0;strokeColor=default;align=center;verticalAlign=middle;fontFamily=Helvetica;fontSize=11;fontColor=default;labelBackgroundColor=default;endArrow=none;" parent="1" source="BA5U3kSRvV7oJEMfb4nu-8" edge="1">
          <mxGeometry relative="1" as="geometry">
            <mxPoint x="850" y="220" as="targetPoint" />
          </mxGeometry>
        </mxCell>
        <mxCell id="BA5U3kSRvV7oJEMfb4nu-8" value="&lt;font color=&quot;#2b0ca8&quot;&gt;Register&lt;/font&gt;" style="shape=rhombus;perimeter=rhombusPerimeter;whiteSpace=wrap;html=1;align=center;fontFamily=Helvetica;fontSize=11;labelBackgroundColor=none;fillColor=#f5f5f5;fontColor=#333333;strokeColor=#1B3DE8;" parent="1" vertex="1">
          <mxGeometry x="375" y="160" width="120" height="60" as="geometry" />
        </mxCell>
        <mxCell id="dh3amedZ29eyjXVZCjvd-29" style="edgeStyle=none;shape=link;rounded=0;orthogonalLoop=1;jettySize=auto;html=1;exitX=0.5;exitY=1;exitDx=0;exitDy=0;strokeColor=default;align=center;verticalAlign=middle;fontFamily=Helvetica;fontSize=11;fontColor=default;labelBackgroundColor=default;endArrow=none;" parent="1" source="BA5U3kSRvV7oJEMfb4nu-9" edge="1">
          <mxGeometry relative="1" as="geometry">
            <mxPoint x="315" y="380" as="targetPoint" />
          </mxGeometry>
        </mxCell>
        <mxCell id="BA5U3kSRvV7oJEMfb4nu-9" value="Register" style="shape=rhombus;perimeter=rhombusPerimeter;whiteSpace=wrap;html=1;align=center;fontFamily=Helvetica;fontSize=11;fontColor=#333333;labelBackgroundColor=default;strokeColor=#2B0CA8;fillColor=#f5f5f5;" parent="1" vertex="1">
          <mxGeometry x="255" y="240" width="120" height="60" as="geometry" />
        </mxCell>
        <mxCell id="dh3amedZ29eyjXVZCjvd-25" style="edgeStyle=none;shape=link;rounded=0;orthogonalLoop=1;jettySize=auto;html=1;exitX=0.5;exitY=0;exitDx=0;exitDy=0;strokeColor=default;align=center;verticalAlign=middle;fontFamily=Helvetica;fontSize=11;fontColor=default;labelBackgroundColor=default;endArrow=none;" parent="1" source="BA5U3kSRvV7oJEMfb4nu-10" edge="1">
          <mxGeometry relative="1" as="geometry">
            <mxPoint x="-50" y="580" as="targetPoint" />
          </mxGeometry>
        </mxCell>
        <mxCell id="u3yfw166LWKgYhDKPG6Q-8" style="edgeStyle=none;shape=connector;rounded=0;orthogonalLoop=1;jettySize=auto;html=1;exitX=0;exitY=0;exitDx=0;exitDy=0;strokeColor=default;align=center;verticalAlign=middle;fontFamily=Helvetica;fontSize=11;fontColor=default;labelBackgroundColor=default;endArrow=none;" parent="1" source="BA5U3kSRvV7oJEMfb4nu-10" edge="1">
          <mxGeometry relative="1" as="geometry">
            <mxPoint x="-90" y="190" as="targetPoint" />
          </mxGeometry>
        </mxCell>
        <mxCell id="BA5U3kSRvV7oJEMfb4nu-10" value="Register" style="shape=rhombus;perimeter=rhombusPerimeter;whiteSpace=wrap;html=1;align=center;fontFamily=Helvetica;fontSize=11;fontColor=#333333;labelBackgroundColor=default;strokeColor=#2B0CA8;fillColor=#f5f5f5;" parent="1" vertex="1">
          <mxGeometry x="-110" y="650" width="120" height="60" as="geometry" />
        </mxCell>
        <mxCell id="dh3amedZ29eyjXVZCjvd-23" style="edgeStyle=none;shape=link;rounded=0;orthogonalLoop=1;jettySize=auto;html=1;exitX=1;exitY=0.5;exitDx=0;exitDy=0;entryX=0;entryY=0;entryDx=0;entryDy=0;strokeColor=default;align=center;verticalAlign=middle;fontFamily=Helvetica;fontSize=11;fontColor=default;labelBackgroundColor=default;endArrow=none;" parent="1" source="BA5U3kSRvV7oJEMfb4nu-11" target="SV3E9Kw29htiZ1d8ENj7-8" edge="1">
          <mxGeometry relative="1" as="geometry" />
        </mxCell>
        <mxCell id="BA5U3kSRvV7oJEMfb4nu-11" value="Register" style="shape=rhombus;perimeter=rhombusPerimeter;whiteSpace=wrap;html=1;align=center;fontFamily=Helvetica;fontSize=11;fontColor=#333333;labelBackgroundColor=default;strokeColor=#2B0CA8;fillColor=#f5f5f5;" parent="1" vertex="1">
          <mxGeometry x="-80" y="370" width="120" height="60" as="geometry" />
        </mxCell>
        <mxCell id="dh3amedZ29eyjXVZCjvd-22" style="edgeStyle=none;shape=link;rounded=0;orthogonalLoop=1;jettySize=auto;html=1;exitX=0.5;exitY=1;exitDx=0;exitDy=0;strokeColor=default;align=center;verticalAlign=middle;fontFamily=Helvetica;fontSize=11;fontColor=default;labelBackgroundColor=default;endArrow=none;" parent="1" source="BA5U3kSRvV7oJEMfb4nu-12" target="SV3E9Kw29htiZ1d8ENj7-6" edge="1">
          <mxGeometry relative="1" as="geometry" />
        </mxCell>
        <mxCell id="BA5U3kSRvV7oJEMfb4nu-12" value="Generate" style="shape=rhombus;perimeter=rhombusPerimeter;whiteSpace=wrap;html=1;align=center;fontFamily=Helvetica;fontSize=11;fontColor=#333333;labelBackgroundColor=default;strokeColor=#2B0CA8;fillColor=#f5f5f5;" parent="1" vertex="1">
          <mxGeometry x="610" y="510" width="120" height="60" as="geometry" />
        </mxCell>
        <mxCell id="dh3amedZ29eyjXVZCjvd-20" style="edgeStyle=none;shape=link;rounded=0;orthogonalLoop=1;jettySize=auto;html=1;exitX=0.5;exitY=1;exitDx=0;exitDy=0;entryX=0.25;entryY=0;entryDx=0;entryDy=0;strokeColor=default;align=center;verticalAlign=middle;fontFamily=Helvetica;fontSize=11;fontColor=default;labelBackgroundColor=default;endArrow=none;" parent="1" source="BA5U3kSRvV7oJEMfb4nu-13" target="SV3E9Kw29htiZ1d8ENj7-9" edge="1">
          <mxGeometry relative="1" as="geometry" />
        </mxCell>
        <mxCell id="BA5U3kSRvV7oJEMfb4nu-13" value="Have" style="shape=rhombus;perimeter=rhombusPerimeter;whiteSpace=wrap;html=1;align=center;fontFamily=Helvetica;fontSize=11;labelBackgroundColor=default;strokeColor=#2B0CA8;fillColor=#f5f5f5;fontColor=#333333;" parent="1" vertex="1">
          <mxGeometry x="890" y="275" width="120" height="60" as="geometry" />
        </mxCell>
        <mxCell id="dh3amedZ29eyjXVZCjvd-28" style="edgeStyle=none;shape=link;rounded=0;orthogonalLoop=1;jettySize=auto;html=1;exitX=0;exitY=0.5;exitDx=0;exitDy=0;entryX=0.75;entryY=1;entryDx=0;entryDy=0;strokeColor=default;align=center;verticalAlign=middle;fontFamily=Helvetica;fontSize=11;fontColor=default;labelBackgroundColor=default;endArrow=none;" parent="1" source="BA5U3kSRvV7oJEMfb4nu-14" target="SV3E9Kw29htiZ1d8ENj7-5" edge="1">
          <mxGeometry relative="1" as="geometry" />
        </mxCell>
        <mxCell id="BA5U3kSRvV7oJEMfb4nu-14" value="&lt;span style=&quot;&quot;&gt;Took&lt;/span&gt;" style="shape=rhombus;perimeter=rhombusPerimeter;whiteSpace=wrap;html=1;align=center;fontFamily=Helvetica;fontSize=11;fontColor=#333333;labelBackgroundColor=none;strokeColor=#2B0CA8;fillColor=#f5f5f5;" parent="1" vertex="1">
          <mxGeometry x="685" y="380" width="120" height="60" as="geometry" />
        </mxCell>
        <mxCell id="dh3amedZ29eyjXVZCjvd-27" style="edgeStyle=none;shape=link;rounded=0;orthogonalLoop=1;jettySize=auto;html=1;exitX=1;exitY=0.5;exitDx=0;exitDy=0;strokeColor=default;align=center;verticalAlign=middle;fontFamily=Helvetica;fontSize=11;fontColor=default;labelBackgroundColor=default;endArrow=none;" parent="1" source="BA5U3kSRvV7oJEMfb4nu-15" target="SV3E9Kw29htiZ1d8ENj7-5" edge="1">
          <mxGeometry relative="1" as="geometry" />
        </mxCell>
        <mxCell id="dh3amedZ29eyjXVZCjvd-59" value="" style="edgeLabel;html=1;align=center;verticalAlign=middle;resizable=0;points=[];dashed=0;strokeColor=default;strokeWidth=1;spacingLeft=6;spacingTop=0;fontFamily=Helvetica;fontSize=11;fontColor=default;labelBackgroundColor=default;fillColor=default;" parent="dh3amedZ29eyjXVZCjvd-27" vertex="1" connectable="0">
          <mxGeometry x="0.7441" y="-6" relative="1" as="geometry">
            <mxPoint x="-1" as="offset" />
          </mxGeometry>
        </mxCell>
        <mxCell id="BA5U3kSRvV7oJEMfb4nu-15" value="Booked" style="shape=rhombus;perimeter=rhombusPerimeter;whiteSpace=wrap;html=1;align=center;fontFamily=Helvetica;fontSize=11;fontColor=#333333;labelBackgroundColor=none;strokeColor=#2B0CA8;fillColor=#f5f5f5;" parent="1" vertex="1">
          <mxGeometry x="420" y="362" width="120" height="60" as="geometry" />
        </mxCell>
        <mxCell id="dh3amedZ29eyjXVZCjvd-4" style="edgeStyle=none;shape=connector;rounded=0;orthogonalLoop=1;jettySize=auto;html=1;exitX=1;exitY=0.5;exitDx=0;exitDy=0;strokeColor=default;align=center;verticalAlign=middle;fontFamily=Helvetica;fontSize=11;fontColor=default;labelBackgroundColor=default;endArrow=none;" parent="1" source="SV3E9Kw29htiZ1d8ENj7-2" edge="1">
          <mxGeometry relative="1" as="geometry">
            <mxPoint x="380" y="189" as="targetPoint" />
          </mxGeometry>
        </mxCell>
        <mxCell id="dh3amedZ29eyjXVZCjvd-12" style="edgeStyle=none;shape=connector;rounded=0;orthogonalLoop=1;jettySize=auto;html=1;exitX=0.25;exitY=1;exitDx=0;exitDy=0;entryX=0.17;entryY=1;entryDx=0;entryDy=0;entryPerimeter=0;strokeColor=default;align=center;verticalAlign=middle;fontFamily=Helvetica;fontSize=11;fontColor=default;labelBackgroundColor=default;endArrow=none;" parent="1" source="SV3E9Kw29htiZ1d8ENj7-4" target="SV3E9Kw29htiZ1d8ENj7-4" edge="1">
          <mxGeometry relative="1" as="geometry" />
        </mxCell>
        <mxCell id="dh3amedZ29eyjXVZCjvd-51" value="1" style="text;html=1;align=center;verticalAlign=middle;resizable=0;points=[];autosize=1;strokeColor=none;fillColor=none;fontFamily=Helvetica;fontSize=11;fontColor=default;labelBackgroundColor=default;" parent="1" vertex="1">
          <mxGeometry x="245" y="168" width="30" height="30" as="geometry" />
        </mxCell>
        <mxCell id="dh3amedZ29eyjXVZCjvd-52" value="M" style="text;html=1;align=center;verticalAlign=middle;resizable=0;points=[];autosize=1;strokeColor=none;fillColor=none;fontFamily=Helvetica;fontSize=11;fontColor=default;labelBackgroundColor=default;" parent="1" vertex="1">
          <mxGeometry x="855" y="168" width="30" height="30" as="geometry" />
        </mxCell>
        <mxCell id="dh3amedZ29eyjXVZCjvd-54" value="1 1" style="text;html=1;align=center;verticalAlign=middle;resizable=0;points=[];autosize=1;strokeColor=none;fillColor=none;fontFamily=Helvetica;fontSize=11;fontColor=default;labelBackgroundColor=default;" parent="1" vertex="1">
          <mxGeometry x="900" y="190" width="40" height="30" as="geometry" />
        </mxCell>
        <mxCell id="dh3amedZ29eyjXVZCjvd-55" value="1" style="text;html=1;align=center;verticalAlign=middle;resizable=0;points=[];autosize=1;strokeColor=none;fillColor=none;fontFamily=Helvetica;fontSize=11;fontColor=default;labelBackgroundColor=default;" parent="1" vertex="1">
          <mxGeometry x="915" y="255" width="30" height="30" as="geometry" />
        </mxCell>
        <mxCell id="dh3amedZ29eyjXVZCjvd-57" value="M" style="text;html=1;align=center;verticalAlign=middle;resizable=0;points=[];autosize=1;strokeColor=none;fillColor=none;fontFamily=Helvetica;fontSize=11;fontColor=default;labelBackgroundColor=default;" parent="1" vertex="1">
          <mxGeometry x="645" y="358" width="30" height="30" as="geometry" />
        </mxCell>
        <mxCell id="dh3amedZ29eyjXVZCjvd-58" value="1" style="text;html=1;align=center;verticalAlign=middle;resizable=0;points=[];autosize=1;strokeColor=none;fillColor=none;fontFamily=Helvetica;fontSize=11;fontColor=default;labelBackgroundColor=default;" parent="1" vertex="1">
          <mxGeometry x="245" y="395" width="30" height="30" as="geometry" />
        </mxCell>
        <mxCell id="dh3amedZ29eyjXVZCjvd-60" value="M" style="text;html=1;align=center;verticalAlign=middle;resizable=0;points=[];autosize=1;strokeColor=none;fillColor=none;fontFamily=Helvetica;fontSize=11;fontColor=default;labelBackgroundColor=default;" parent="1" vertex="1">
          <mxGeometry x="555" y="365" width="30" height="30" as="geometry" />
        </mxCell>
        <mxCell id="dh3amedZ29eyjXVZCjvd-61" value="1" style="text;html=1;align=center;verticalAlign=middle;resizable=0;points=[];autosize=1;strokeColor=none;fillColor=none;fontFamily=Helvetica;fontSize=11;fontColor=default;labelBackgroundColor=default;" parent="1" vertex="1">
          <mxGeometry x="245" y="198" width="30" height="30" as="geometry" />
        </mxCell>
        <mxCell id="dh3amedZ29eyjXVZCjvd-63" value="M" style="text;html=1;align=center;verticalAlign=middle;resizable=0;points=[];autosize=1;strokeColor=none;fillColor=none;fontFamily=Helvetica;fontSize=11;fontColor=default;labelBackgroundColor=default;" parent="1" vertex="1">
          <mxGeometry x="225" y="378" width="30" height="30" as="geometry" />
        </mxCell>
        <mxCell id="dh3amedZ29eyjXVZCjvd-64" value="1" style="text;html=1;align=center;verticalAlign=middle;resizable=0;points=[];autosize=1;strokeColor=none;fillColor=none;fontFamily=Helvetica;fontSize=11;fontColor=default;labelBackgroundColor=default;" parent="1" vertex="1">
          <mxGeometry x="255" y="638" width="30" height="30" as="geometry" />
        </mxCell>
        <mxCell id="dh3amedZ29eyjXVZCjvd-65" value="M" style="text;html=1;align=center;verticalAlign=middle;resizable=0;points=[];autosize=1;strokeColor=none;fillColor=none;fontFamily=Helvetica;fontSize=11;fontColor=default;labelBackgroundColor=default;" parent="1" vertex="1">
          <mxGeometry x="135" y="378" width="30" height="30" as="geometry" />
        </mxCell>
        <mxCell id="dh3amedZ29eyjXVZCjvd-66" value="1" style="text;html=1;align=center;verticalAlign=middle;resizable=0;points=[];autosize=1;strokeColor=none;fillColor=none;fontFamily=Helvetica;fontSize=11;fontColor=default;labelBackgroundColor=default;" parent="1" vertex="1">
          <mxGeometry x="110" y="175" width="30" height="30" as="geometry" />
        </mxCell>
        <mxCell id="dh3amedZ29eyjXVZCjvd-67" value="M" style="text;html=1;align=center;verticalAlign=middle;resizable=0;points=[];autosize=1;strokeColor=none;fillColor=none;fontFamily=Helvetica;fontSize=11;fontColor=default;labelBackgroundColor=default;" parent="1" vertex="1">
          <mxGeometry x="195" y="648" width="30" height="30" as="geometry" />
        </mxCell>
        <mxCell id="dh3amedZ29eyjXVZCjvd-68" value="1" style="text;html=1;align=center;verticalAlign=middle;resizable=0;points=[];autosize=1;strokeColor=none;fillColor=none;fontFamily=Helvetica;fontSize=11;fontColor=default;labelBackgroundColor=default;" parent="1" vertex="1">
          <mxGeometry x="605" y="365" width="30" height="30" as="geometry" />
        </mxCell>
        <mxCell id="dh3amedZ29eyjXVZCjvd-69" value="1" style="text;html=1;align=center;verticalAlign=middle;resizable=0;points=[];autosize=1;strokeColor=none;fillColor=none;fontFamily=Helvetica;fontSize=11;fontColor=default;labelBackgroundColor=default;" parent="1" vertex="1">
          <mxGeometry x="735" y="668" width="30" height="30" as="geometry" />
        </mxCell>
      </root>
    </mxGraphModel>
  </diagram>
</mxfile>
